<svg xmlns="http://www.w3.org/2000/svg" viewBox="0 0 126.67 76.8"><defs><style>.cls-1,.cls-2{fill:none;stroke-linecap:round;stroke-linejoin:round;stroke-width:1.67px;}.cls-1{stroke:#0e1030;}.cls-2{stroke:#eb5539;}</style></defs><title>Content5</title><g id="Layer_2" data-name="Layer 2"><g id="About_RoboMaster" data-name="About RoboMaster"><g id="Content5"><line class="cls-1" x1="75.86" y1="44.24" x2="75.86" y2="49.25"/><line class="cls-1" x1="50.81" y1="44.24" x2="50.81" y2="49.25"/><line class="cls-1" x1="4.13" y1="49.13" x2="5.68" y2="44.36"/><line class="cls-1" x1="122.54" y1="49.13" x2="120.99" y2="44.36"/><circle class="cls-2" cx="25.77" cy="59.27" r="16.69"/><circle class="cls-2" cx="25.77" cy="59.27" r="2.5"/><circle class="cls-2" cx="100.9" cy="59.27" r="16.69"/><circle class="cls-2" cx="100.9" cy="59.27" r="2.5"/><path class="cls-2" d="M75.86,41.74V38.4s0-4.18-4.18-4.18H63.33"/><path class="cls-2" d="M50.81,41.74V38.4s0-4.18,4.18-4.18h8.34"/><path class="cls-2" d="M75.86,51.75v3.34s0,4.18-4.18,4.18H63.33"/><path class="cls-2" d="M50.81,51.75v3.34s0,4.18,4.18,4.18h8.34"/><line class="cls-2" x1="6.53" y1="41.74" x2="8.97" y2="34.22"/><line class="cls-2" x1="0.83" y1="59.27" x2="3.28" y2="51.75"/><line class="cls-2" x1="120.14" y1="41.74" x2="117.7" y2="34.22"/><line class="cls-2" x1="125.83" y1="59.27" x2="123.39" y2="51.75"/><line class="cls-2" x1="19.32" y1="19.39" x2="25.77" y2="39.23"/><line class="cls-2" x1="22.66" y1="19.39" x2="29.11" y2="39.23"/><line class="cls-2" x1="11.58" y1="16.05" x2="12.67" y2="19.39"/><line class="cls-2" x1="12.67" y1="19.39" x2="22.66" y2="19.39"/><line class="cls-2" x1="11.58" y1="16.05" x2="24.1" y2="16.05"/><line class="cls-2" x1="50.81" y1="23.37" x2="53.39" y2="31.31"/><line class="cls-2" x1="50.81" y1="23.37" x2="54.17" y2="13.04"/><circle class="cls-2" cx="54.69" cy="11.46" r="1.67"/><line class="cls-2" x1="54.15" y1="23.37" x2="56.73" y2="31.31"/><line class="cls-2" x1="54.15" y1="23.37" x2="55.51" y2="19.2"/><line class="cls-2" x1="37.4" y1="14.19" x2="49.21" y2="18.03"/><line class="cls-2" x1="37.4" y1="7.36" x2="57.49" y2="0.83"/><line class="cls-2" x1="85.76" y1="10.02" x2="57.49" y2="0.84"/><line class="cls-2" x1="37.4" y1="14.19" x2="37.4" y2="7.36"/><line class="cls-2" x1="55.51" y1="19.2" x2="69.23" y2="19.2"/><line class="cls-2" x1="69.23" y1="19.2" x2="73.33" y2="16.28"/><line class="cls-2" x1="81.74" y1="16.28" x2="85.76" y2="13.36"/><line class="cls-2" x1="73.33" y1="16.28" x2="81.68" y2="16.28"/><line class="cls-2" x1="85.76" y1="13.36" x2="102.46" y2="13.36"/><line class="cls-2" x1="85.76" y1="10.02" x2="102.46" y2="10.02"/><line class="cls-2" x1="43.3" y1="50.92" x2="48.31" y2="50.92"/><line class="cls-2" x1="78.36" y1="50.92" x2="83.37" y2="50.92"/><line class="cls-2" x1="118.43" y1="50.92" x2="120.1" y2="50.92"/><line class="cls-2" x1="6.57" y1="50.92" x2="8.24" y2="50.92"/><line class="cls-2" x1="5.32" y1="54.26" x2="6.99" y2="54.26"/><line class="cls-2" x1="119.35" y1="54.26" x2="121.02" y2="54.26"/><line class="cls-2" x1="78.36" y1="54.26" x2="82.12" y2="54.26"/><line class="cls-2" x1="44.55" y1="54.26" x2="48.31" y2="54.26"/></g></g></g></svg>