<?xml version="1.0" encoding="utf-8"?>
<!-- Generator: Adobe Illustrator 22.0.1, SVG Export Plug-In . SVG Version: 6.00 Build 0)  -->
<svg version="1.1" id="Layer_1" xmlns="http://www.w3.org/2000/svg" xmlns:xlink="http://www.w3.org/1999/xlink" x="0px" y="0px"
	 viewBox="0 0 20.5 20.5" style="enable-background:new 0 0 20.5 20.5;" xml:space="preserve">
<style type="text/css">
	.st0{fill:none;stroke:#9E9E9E;stroke-width:0.5;stroke-miterlimit:10;}
	.st1{fill:#9E9E9E;}
</style>
<rect x="0.2" y="0.2" class="st0" width="20" height="20"/>
<g>
	<path class="st1" d="M9,10.4c0.7-1.4,2.3-2.2,3.8-2.1c-0.6-2.8-4.4-3.7-6.7-2.5c-1.7,0.9-2.6,3-1.6,4.7c0.1,0.2,0.3,0.5,0.5,0.7
		c0.2,0.2,0.7,0.5,0.8,0.6c0.1,0.3-0.3,1-0.4,1.3c0.3-0.2,0.7-0.3,1-0.5c0.8-0.4,1.5,0,2.4,0C8.6,11.9,8.7,11.1,9,10.4z M10.1,7.1
		c0.7,0,0.7,1,0,1.1C9.3,8.2,9.3,7.1,10.1,7.1z M7,8.2C6.2,8.2,6.2,7,7,7.1C7.7,7.1,7.8,8.2,7,8.2z"/>
	<path class="st1" d="M16.4,11.6c-0.1-2.9-4.1-3.8-6.1-2.3c-1.5,1.1-1.6,3.2-0.3,4.5c0.6,0.5,1.3,0.8,2,1c0.5,0.1,0.9,0.1,1.4,0
		c0.2,0,0.4-0.2,0.6-0.1c0.4,0.1,0.9,0.5,1.2,0.6C15.1,15,15,14.8,15,14.5c-0.1-0.4,0-0.4,0.3-0.7c0.4-0.4,0.8-0.9,1-1.5
		C16.4,12.1,16.4,11.8,16.4,11.6z M11.5,11.1c-0.5,0-0.5-0.8,0-0.9C12.1,10.2,12.2,11.1,11.5,11.1z M13.9,11.1c-0.5,0-0.5-0.8,0-0.9
		C14.5,10.2,14.6,11.1,13.9,11.1z"/>
</g>
</svg>
