<svg xmlns="http://www.w3.org/2000/svg" viewBox="0 0 45.87 16.67"><defs><style>.cls-1{fill:#fff;}.cls-2{fill:#999;}.cls-3{fill:#e5e5e5;}</style></defs><title>Bottom</title><g id="Layer_2" data-name="Layer 2"><g id="Home_Page" data-name="Home Page"><g id="Bottom"><path class="cls-1" d="M0,2.71a1.34,1.34,0,0,1,.41-1,1.36,1.36,0,0,1,1-.42,1.36,1.36,0,0,1,1,.42,1.34,1.34,0,0,1,.41,1,1.39,1.39,0,0,1-.41,1,1.35,1.35,0,0,1-1,.41A1.4,1.4,0,0,1,0,2.71Zm2.49,3.9V16H.33V6.61Z"/><path class="cls-1" d="M28,0,22.69,11.55,17.59,0,14.46,16,9.86,9.65a4,4,0,0,0,2.38-1.46,4.17,4.17,0,0,0,.91-2.71,4.09,4.09,0,0,0-1.44-3.26,6.65,6.65,0,0,0-4.26-1.1H4.82V16H7.06V9.9h.41L11.71,16h5.07l1.6-9,4.27,9.67L27.05,7l1.44,9h2.3ZM7.06,7.94V3.23h.8C9.93,3.23,11,4,11,5.51S9.9,7.94,7.78,7.94Z"/><polyline class="cls-1" points="34.99 1.12 33.32 1.12 32.15 1.12 30.49 1.12 33.12 15.98 35.95 15.98 35.95 15.98 37.62 15.98 34.99 1.12"/><polyline class="cls-2" points="43.24 1.12 41.24 1.12 43.87 15.98 45.87 15.98 43.24 1.12"/><polyline class="cls-3" points="39.92 1.12 39.51 1.12 37.09 1.12 36.67 1.12 39.31 15.98 42.14 15.98 42.14 15.98 42.56 15.98 39.92 1.12"/></g></g></g></svg>