<svg xmlns="http://www.w3.org/2000/svg" viewBox="0 0 68.81 25"><defs><style>.cls-1{fill:#fff;}.cls-2{fill:#999;}.cls-3{fill:#e5e5e5;}</style></defs><title>Header</title><g id="Layer_2" data-name="Layer 2"><g id="About_RoboMaster" data-name="About RoboMaster"><g id="Header"><path class="cls-1" d="M0,4.06A2,2,0,0,1,.62,2.59,2,2,0,0,1,2.11,2a2,2,0,0,1,1.5.62,2,2,0,0,1,.62,1.49,2.08,2.08,0,0,1-.62,1.5,2,2,0,0,1-1.49.62,2.06,2.06,0,0,1-1.5-.62A2.09,2.09,0,0,1,0,4.06ZM3.74,9.91V24H.49V9.91Z"/><path class="cls-1" d="M42,0,34,17.33,26.38,0,21.69,24l-6.91-9.5a6.06,6.06,0,0,0,3.59-2.18,6.36,6.36,0,0,0,1.35-4.07,6.11,6.11,0,0,0-2.16-4.88q-2-1.66-6.39-1.66H7.23V24H10.6V14.85h.6L17.57,24h7.6l2.4-13.47L34,25l6.6-14.49L42.73,24h3.45ZM10.6,11.92V4.84h1.2q4.65,0,4.65,3.42c0,2.44-1.6,3.66-4.78,3.66Z"/><polyline class="cls-1" points="52.48 1.68 49.98 1.68 48.23 1.68 45.73 1.68 49.68 23.98 53.93 23.98 53.93 23.98 56.43 23.98 52.48 1.68"/><polyline class="cls-2" points="64.86 1.68 61.86 1.68 65.81 23.98 68.81 23.98 64.86 1.68"/><polyline class="cls-3" points="59.88 1.68 59.26 1.68 55.63 1.68 55.01 1.68 58.96 23.98 63.21 23.98 63.21 23.98 63.84 23.98 59.88 1.68"/></g></g></g></svg>