<svg xmlns="http://www.w3.org/2000/svg" viewBox="0 0 137.62 50"><defs><style>.cls-1{fill:#eb5539;}.cls-2{fill:#0e1030;}.cls-3{fill:#33314a;}.cls-4{fill:#807d8e;}.cls-5{fill:#575369;}</style></defs><title>Header (2)</title><g id="Layer_2" data-name="Layer 2"><g id="Home_Page" data-name="Home Page"><g id="Header"><g id="Top_Logo" data-name="Top Logo"><path class="cls-1" d="M0,8.12A4,4,0,0,1,1.24,5.18a4.07,4.07,0,0,1,3-1.25,4.09,4.09,0,0,1,3,1.25,4,4,0,0,1,1.24,3,4.09,4.09,0,0,1-1.24,3,4,4,0,0,1-3,1.24,4.13,4.13,0,0,1-3-1.24A4.13,4.13,0,0,1,0,8.12Zm7.48,11.7V48H1V19.82Z"/><path class="cls-2" d="M83.93,0,68.07,34.66,52.76,0,43.38,48l-13.81-19a12.09,12.09,0,0,0,7.16-4.36,12.67,12.67,0,0,0,2.72-8.14,12.24,12.24,0,0,0-4.33-9.77Q31.19,3.36,22.35,3.35H14.46V48h6.73V29.69h1.22L35.14,48h15.2L55.13,21,68,50l13.2-29L85.46,48h6.91ZM21.19,23.83V9.68h2.4q9.3,0,9.3,6.84,0,7.31-9.56,7.31Z"/><polyline class="cls-3" points="104.96 3.36 99.96 3.36 96.46 3.36 91.46 3.36 99.36 47.95 107.87 47.95 107.86 47.95 112.87 47.95 104.96 3.36"/><polyline class="cls-4" points="129.71 3.36 123.71 3.36 131.62 47.95 137.62 47.95 129.71 3.36"/><polyline class="cls-5" points="119.77 3.36 118.52 3.36 111.27 3.36 110.02 3.36 117.92 47.95 126.42 47.95 126.42 47.95 127.67 47.95 119.77 3.36"/></g></g></g></g></svg>